<svg width="154" height="46" viewBox="0 0 154 46" fill="none" xmlns="http://www.w3.org/2000/svg"><path d="M5.79542 1.14014H148.204C150.772 1.14014 152.857 3.21932 152.857 5.78028V39.4281C152.857 41.989 150.772 44.0682 148.204 44.0682H5.79587C3.22794 44.0682 1.14307 41.9889 1.14307 39.4278V5.78013C1.14307 3.21925 3.22772 1.14014 5.79542 1.14014Z" fill="#000000"/><path d="M148.204 45.2079H5.79546C2.59996 45.2079 0 42.615 0 39.4279V5.78036C0 2.5932 2.59996 0 5.79546 0H148.204C151.4 0 154 2.5932 154 5.78036V39.4279C154 42.615 151.4 45.2079 148.204 45.2079ZM5.79546 1.13992C3.2301 1.13992 1.14311 3.22159 1.14311 5.78036V39.4279C1.14311 41.9864 3.2301 44.068 5.79546 44.068H148.204C150.77 44.068 152.857 41.9864 152.857 39.4279V5.78036C152.857 3.22152 150.77 1.13992 148.204 1.13992H5.79546Z" fill="#FFFFFF"/><path d="M51.2699 12.8559L50.629 14.9603H49.2261L51.6125 7.53467H53.3466L55.7658 14.9603H54.3076L53.6339 12.8559H51.2699ZM53.4019 11.8315L52.8162 10.0025C52.6728 9.55064 52.5512 9.04394 52.4406 8.61431H52.4185C52.3083 9.04394 52.1978 9.56164 52.065 10.0025L51.4908 11.8315H53.4019Z" fill="#FFFFFF"/><path d="M57.7965 9.59473L58.6689 12.3162C58.8238 12.7897 58.9339 13.2196 59.0336 13.6603H59.0666C59.1661 13.2197 59.2875 12.8008 59.4312 12.3162L60.2926 9.59473H61.7176L59.6631 14.9603H58.3265L56.3271 9.59473H57.7965Z" fill="#FFFFFF"/><path d="M67.1405 13.6713C67.1405 14.1559 67.1627 14.6297 67.2289 14.9603H66.0026L65.9034 14.3654H65.8703C65.55 14.7838 64.9863 15.0815 64.2795 15.0815C63.1969 15.0815 62.5894 14.2992 62.5894 13.4838C62.5894 12.1398 63.7937 11.4458 65.7818 11.4567V11.3685C65.7818 11.0161 65.6381 10.4321 64.6882 10.4321C64.1582 10.4321 63.6056 10.5972 63.2411 10.8288L62.9761 9.94719C63.3737 9.70495 64.0696 9.47363 64.9202 9.47363C66.6437 9.47363 67.1406 10.5641 67.1406 11.7431L67.1405 13.6713ZM65.815 12.338C64.854 12.3269 63.937 12.5255 63.937 13.3408C63.937 13.8694 64.2795 14.1117 64.7103 14.1117C65.2624 14.1117 65.6491 13.7592 65.7818 13.3735C65.8151 13.2746 65.8151 13.1753 65.8151 13.0762L65.815 12.338Z" fill="#FFFFFF"/><path d="M69.7346 8.82385C69.2817 8.82385 68.9834 8.49346 68.9834 8.09676C68.9834 7.67836 69.2928 7.35889 69.7457 7.35889C70.2097 7.35889 70.4969 7.67836 70.5079 8.09676C70.5079 8.49346 70.2097 8.82385 69.7457 8.82385H69.7346ZM69.0609 14.9608V9.59517H70.4196V14.9608H69.0609Z" fill="#FFFFFF"/><path d="M72.374 7.12695H73.7326V14.9604H72.374V7.12695Z" fill="#FFFFFF"/><path d="M79.8743 13.6713C79.8743 14.1559 79.8962 14.6297 79.962 14.9603H78.7361L78.6366 14.3654H78.6033C78.2835 14.7838 77.7201 15.0815 77.0127 15.0815C75.9302 15.0815 75.3228 14.2992 75.3228 13.4838C75.3228 12.1398 76.5269 11.4458 78.5149 11.4567V11.3685C78.5149 11.0161 78.3718 10.4321 77.4215 10.4321C76.8916 10.4321 76.339 10.5972 75.9745 10.8288L75.7093 9.94719C76.107 9.70495 76.803 9.47363 77.6537 9.47363C79.3766 9.47363 79.8743 10.5641 79.8743 11.7431V13.6713ZM78.548 12.338C77.5875 12.3269 76.6704 12.5255 76.6704 13.3408C76.6704 13.8694 77.0127 14.1117 77.4437 14.1117C77.9959 14.1117 78.3829 13.7592 78.5149 13.3735C78.5479 13.2746 78.5479 13.1753 78.5479 13.0762L78.548 12.338Z" fill="#FFFFFF"/><path d="M81.7948 7.12695H83.1533V10.333H83.1755C83.5072 9.81539 84.0926 9.47385 84.8991 9.47385C86.2134 9.47385 87.152 10.5643 87.141 12.1951C87.141 14.1229 85.915 15.0816 84.6999 15.0816C84.0041 15.0816 83.3856 14.817 82.9985 14.156H82.9765L82.91 14.9604H81.7505C81.7725 14.5967 81.7947 14.0019 81.7947 13.4619L81.7948 7.12695ZM83.1533 12.7458C83.1533 12.8561 83.1644 12.9663 83.1866 13.0652C83.3303 13.6163 83.805 14.013 84.3904 14.013C85.2411 14.013 85.7601 13.3409 85.7601 12.2501C85.7601 11.3025 85.3075 10.5316 84.4015 10.5316C83.8493 10.5316 83.3414 10.9279 83.1977 11.523C83.1755 11.622 83.1533 11.7433 83.1533 11.8757V12.7458Z" fill="#FFFFFF"/><path d="M88.7407 7.12695H90.0994V14.9604H88.7407V7.12695Z" fill="#FFFFFF"/><path d="M93.0263 12.6577C93.0594 13.6272 93.8209 14.0459 94.6829 14.0459C95.3124 14.0459 95.7547 13.9467 96.1742 13.8032L96.3732 14.7289C95.9094 14.9271 95.2681 15.0705 94.4954 15.0705C92.7498 15.0705 91.7222 14.0018 91.7222 12.3599C91.7222 10.873 92.6281 9.47363 94.3517 9.47363C96.0967 9.47363 96.671 10.906 96.671 12.0847C96.671 12.3379 96.649 12.5364 96.6274 12.6577H93.0263ZM95.3897 11.7101C95.4008 11.2144 95.1804 10.399 94.2743 10.399C93.4347 10.399 93.0816 11.1593 93.0263 11.7101H95.3897Z" fill="#FFFFFF"/><path d="M103.374 15.0814C101.861 15.0814 100.678 14.0459 100.678 12.3162C100.678 10.5531 101.839 9.47363 103.463 9.47363C105.064 9.47363 106.136 10.5971 106.136 12.228C106.136 14.2 104.744 15.0814 103.385 15.0814H103.374ZM103.418 14.1007C104.191 14.1007 104.733 13.3517 104.733 12.2611C104.733 11.4235 104.357 10.4541 103.43 10.4541C102.468 10.4541 102.081 11.3905 102.081 12.2831C102.081 13.3187 102.601 14.1007 103.407 14.1007H103.418Z" fill="#FFFFFF"/><path d="M107.736 11.1924C107.736 10.5752 107.714 10.0576 107.692 9.59472H108.874L108.94 10.399H108.973C109.216 9.98034 109.802 9.47363 110.697 9.47363C111.635 9.47363 112.607 10.0796 112.607 11.7761V14.9602H111.249V11.9306C111.249 11.1593 110.961 10.5752 110.221 10.5752C109.68 10.5752 109.305 10.9609 109.161 11.3685C109.117 11.4788 109.095 11.6439 109.095 11.7983V14.9603H107.736L107.736 11.1924Z" fill="#FFFFFF"/><path d="M118.868 8.21777V9.59488H120.16V10.6084H118.868V12.9663C118.868 13.6274 119.045 13.9579 119.564 13.9579C119.806 13.9579 119.939 13.9468 120.094 13.9026L120.116 14.9272C119.917 15.0045 119.553 15.0707 119.132 15.0707C118.625 15.0707 118.216 14.9052 117.962 14.6299C117.663 14.3215 117.531 13.8256 117.531 13.1204V10.6084H116.769V9.59488H117.531V8.5924L118.868 8.21777Z" fill="#FFFFFF"/><path d="M121.673 7.12695H123.031V10.3221H123.054C123.219 10.0687 123.451 9.85917 123.727 9.71616C124.004 9.56178 124.324 9.47377 124.667 9.47377C125.583 9.47377 126.544 10.0797 126.544 11.7984V14.9604H125.186V11.9417C125.186 11.1705 124.898 10.5753 124.147 10.5753C123.617 10.5753 123.242 10.9278 123.087 11.3354C123.043 11.4567 123.031 11.6002 123.031 11.7432V14.9604H121.673L121.673 7.12695Z" fill="#FFFFFF"/><path d="M129.437 12.6577C129.47 13.6272 130.232 14.0459 131.093 14.0459C131.723 14.0459 132.165 13.9467 132.585 13.8032L132.784 14.7289C132.32 14.9271 131.679 15.0705 130.906 15.0705C129.16 15.0705 128.133 14.0018 128.133 12.3599C128.133 10.873 129.039 9.47363 130.762 9.47363C132.507 9.47363 133.082 10.906 133.082 12.0847C133.082 12.3379 133.06 12.5364 133.038 12.6577H129.437ZM131.8 11.7101C131.811 11.2144 131.591 10.399 130.685 10.399C129.845 10.399 129.492 11.1593 129.437 11.7101H131.8Z" fill="#FFFFFF"/><path d="M34.3684 22.1632C34.334 18.4889 37.3859 16.7 37.5251 16.6172C35.7984 14.1029 33.1188 13.7609 32.178 13.7334C29.9297 13.4981 27.7477 15.0776 26.604 15.0776C25.4356 15.0776 23.6677 13.7575 21.7689 13.7955C19.3216 13.8349 17.0317 15.2475 15.7774 17.4405C13.1873 21.914 15.1189 28.4877 17.6003 32.1055C18.8426 33.8756 20.2935 35.8536 22.1924 35.7829C24.0498 35.7059 24.743 34.6027 26.9863 34.6027C29.2091 34.6027 29.8609 35.7829 31.7977 35.7385C33.7914 35.7058 35.0457 33.9595 36.2435 32.1721C37.6802 30.1427 38.256 28.144 38.2786 28.0406C38.2318 28.0251 34.4065 26.5698 34.3684 22.1632Z" fill="#FFFFFF"/><path d="M30.7086 11.3548C31.7078 10.1087 32.3935 8.41198 32.2006 6.69189C30.755 6.75579 28.9475 7.68888 27.9065 8.90882C26.9846 9.98318 26.1592 11.7446 26.3729 13.3997C27.9996 13.52 29.6657 12.5814 30.7086 11.3548Z" fill="#FFFFFF"/><path d="M61.2208 35.4909H58.6333L57.2146 31.0448H52.2874L50.9352 35.4909H48.415L53.3011 20.3599H56.3146L61.2208 35.4909ZM56.7882 29.1803L55.507 25.2292C55.3695 24.8266 55.115 23.8756 54.7407 22.3798H54.6957C54.5451 23.0241 54.3041 23.9735 53.9743 25.2292L52.7136 29.1803H56.7882Z" fill="#FFFFFF"/><path d="M73.7813 29.9C73.7813 31.7557 73.2793 33.2225 72.273 34.3004C71.3727 35.2583 70.2541 35.7362 68.9207 35.7362C67.4794 35.7362 66.4435 35.2186 65.813 34.1872H65.77V39.9338H63.3375V28.1712C63.3375 27.0046 63.3081 25.8087 63.248 24.5798H65.3854L65.5211 26.309H65.5673C66.3768 25.0064 67.6085 24.3555 69.2578 24.3555C70.5462 24.3555 71.6253 24.8648 72.4877 25.8826C73.3501 26.9018 73.7813 28.2401 73.7813 29.9ZM71.3056 29.9891C71.3056 28.927 71.0652 28.0517 70.5856 27.3624C70.0598 26.6448 69.3542 26.2846 68.4709 26.2846C67.8697 26.2846 67.3233 26.4851 66.839 26.8794C66.3508 27.2788 66.0314 27.7975 65.8818 28.442C65.8064 28.7419 65.7702 28.987 65.7702 29.1804V31.0002C65.7702 31.7937 66.0126 32.4633 66.4989 33.0083C66.9885 33.5569 67.6222 33.8275 68.402 33.8275C69.3179 33.8275 70.0311 33.4781 70.5394 32.7736C71.0516 32.0691 71.3056 31.1423 71.3056 29.9891Z" fill="#FFFFFF"/><path d="M86.3616 29.9C86.3616 31.7557 85.8604 33.2225 84.8532 34.3004C83.953 35.2583 82.8365 35.7362 81.5 35.7362C80.0602 35.7362 79.026 35.2186 78.3954 34.1872H78.3507V39.9338H75.92V28.1712C75.92 27.0046 75.8887 25.8087 75.8306 24.5798H77.9675L78.1035 26.309H78.1502C78.9573 25.0064 80.1872 24.3555 81.8398 24.3555C83.1285 24.3555 84.2059 24.8648 85.0698 25.8826C85.9322 26.9018 86.3616 28.2401 86.3616 29.9ZM83.8881 29.9891C83.8881 28.927 83.6475 28.0517 83.1661 27.3624C82.6405 26.6448 81.9361 26.2846 81.0514 26.2846C80.4502 26.2846 79.9054 26.4851 79.4194 26.8794C78.9318 27.2788 78.6136 27.7975 78.4644 28.442C78.3869 28.7419 78.3509 28.987 78.3509 29.1804V31.0002C78.3509 31.7937 78.5928 32.4633 79.081 33.0083C79.5692 33.5569 80.2015 33.8275 80.9846 33.8275C81.8984 33.8275 82.6131 33.4781 83.1219 32.7736C83.6303 32.0691 83.8881 31.1423 83.8881 29.9891Z" fill="#FFFFFF"/><path d="M100.43 31.2465C100.43 32.5334 99.9836 33.5801 99.0818 34.3893C98.0937 35.2733 96.7176 35.7133 94.9512 35.7133C93.3196 35.7133 92.0088 35.3996 91.0176 34.7714L91.5812 32.7511C92.6496 33.3949 93.8196 33.7155 95.096 33.7155C96.0119 33.7155 96.7247 33.51 97.2363 33.099C97.7453 32.686 97.9997 32.1342 97.9997 31.4454C97.9997 30.8319 97.7899 30.313 97.3707 29.8943C96.9513 29.4735 96.2504 29.0846 95.2747 28.7244C92.6187 27.7342 91.2928 26.288 91.2928 24.3847C91.2928 23.1404 91.7564 22.1206 92.688 21.3278C93.6172 20.5325 94.8555 20.1338 96.402 20.1338C97.7829 20.1338 98.9308 20.375 99.8447 20.8529L99.2383 22.8286C98.3825 22.3658 97.4155 22.1331 96.3332 22.1331C95.4776 22.1331 94.8111 22.3418 94.3315 22.7616C93.9283 23.1353 93.725 23.5928 93.725 24.131C93.725 24.7286 93.9555 25.2241 94.4211 25.6113C94.8247 25.971 95.5604 26.3601 96.627 26.7802C97.9326 27.3044 98.891 27.9175 99.5082 28.6199C100.123 29.3244 100.43 30.1998 100.43 31.2465Z" fill="#FFFFFF"/><path d="M108.465 26.3977H105.787V31.6957C105.787 33.0425 106.259 33.7158 107.206 33.7158C107.639 33.7158 107.999 33.6783 108.285 33.6044L108.352 35.4449C107.874 35.6244 107.242 35.7135 106.462 35.7135C105.501 35.7135 104.751 35.4223 104.211 34.8398C103.672 34.2556 103.401 33.2738 103.401 31.8979V26.3977H101.803V24.5782H103.401V22.5819L105.787 21.8623V24.5782H108.465L108.465 26.3977Z" fill="#FFFFFF"/><path d="M120.553 29.9445C120.553 31.6216 120.074 32.9978 119.114 34.0756C118.107 35.1841 116.77 35.7358 115.107 35.7358C113.499 35.7358 112.223 35.2047 111.269 34.1418C110.316 33.0797 109.84 31.74 109.84 30.1258C109.84 28.4327 110.33 27.0486 111.314 25.9727C112.295 24.8932 113.62 24.355 115.286 24.355C116.89 24.355 118.182 24.8864 119.158 25.9488C120.089 26.9835 120.553 28.3132 120.553 29.9445ZM118.031 30.0229C118.031 29.0174 117.815 28.1555 117.378 27.4344C116.87 26.5638 116.141 26.1284 115.197 26.1284C114.219 26.1284 113.477 26.5638 112.968 27.4344C112.532 28.1555 112.317 29.0328 112.317 30.0697C112.317 31.0753 112.532 31.9373 112.968 32.6571C113.492 33.5272 114.228 33.9623 115.176 33.9623C116.104 33.9623 116.832 33.5206 117.356 32.6346C117.806 31.8994 118.031 31.029 118.031 30.0229Z" fill="#FFFFFF"/><path d="M128.452 26.7111C128.212 26.6683 127.958 26.6444 127.688 26.6444C126.834 26.6444 126.171 26.9681 125.705 27.6106C125.302 28.1796 125.099 28.8979 125.099 29.7646V35.489H122.669L122.69 28.0152C122.69 26.7574 122.659 25.6125 122.601 24.5794H124.717L124.807 26.6683H124.872C125.128 25.9503 125.535 25.3731 126.089 24.9395C126.628 24.5505 127.215 24.355 127.846 24.355C128.069 24.355 128.273 24.3704 128.452 24.398L128.452 26.7111Z" fill="#FFFFFF"/><path d="M139.322 29.5177C139.322 29.9531 139.293 30.3177 139.235 30.618H131.943C131.971 31.6955 132.325 32.5195 133 33.0889C133.613 33.5977 134.41 33.8493 135.386 33.8493C136.463 33.8493 137.448 33.678 138.334 33.3338L138.716 35.0181C137.682 35.467 136.458 35.6932 135.046 35.6932C133.352 35.6932 132.019 35.1943 131.052 34.1986C130.086 33.2047 129.6 31.8668 129.6 30.1913C129.6 28.5465 130.05 27.176 130.952 26.0824C131.895 24.9153 133.172 24.333 134.776 24.333C136.352 24.333 137.547 24.9153 138.359 26.0824C139.001 27.0111 139.322 28.1555 139.322 29.5177ZM137.005 28.889C137.022 28.1725 136.864 27.5508 136.534 27.0264C136.113 26.3529 135.465 26.0156 134.596 26.0156C133.802 26.0156 133.156 26.3462 132.662 27.0043C132.256 27.5287 132.015 28.1556 131.943 28.8891L137.005 28.889Z" fill="#FFFFFF"/></svg>