<svg width="22" height="24" viewBox="0 0 22 24" fill="none" xmlns="http://www.w3.org/2000/svg">
<path d="M11.8962 17.0445V18.3185V24C11.483 23.9656 11.1042 23.9656 10.691 23.9656C10.2778 23.9656 9.89906 23.9656 9.48586 24V18.3185V17.0445C10.2778 16.8034 11.1042 16.8034 11.8962 17.0445ZM4.9751 17.9742C6.318 18.1808 7.62646 17.9397 8.69389 17.3544C8.93493 17.2166 9.21039 17.1133 9.48586 17.0445V15.8049V13.1191L6.80006 10.3644C6.45573 10.0201 6.49016 9.46915 6.80006 9.15925C7.1444 8.81492 7.69533 8.84935 8.00523 9.15925L9.45143 10.6399V6.88666C9.45143 6.23242 10.0024 5.68149 10.6566 5.68149C11.3108 5.68149 11.8618 6.23242 11.8618 6.88666V10.6055L13.308 9.12482C13.6523 8.78049 14.1688 8.78049 14.5131 9.12482C14.8574 9.46915 14.8574 9.98565 14.5131 10.33L11.8273 13.0846V15.7704V17.01C12.1028 17.0789 12.3438 17.1822 12.6193 17.3199C13.6867 17.9053 14.9952 18.1463 16.3381 17.9397C18.8861 17.561 20.9177 15.4605 21.262 12.878C21.7097 9.43472 19.1616 6.47346 15.856 6.23242C15.9249 5.92253 15.9593 5.61263 15.9593 5.30273C15.9593 2.3759 13.5834 0 10.6566 0C7.72976 0 5.35387 2.3759 5.35387 5.30273C5.35387 5.61263 5.3883 5.92253 5.45716 6.23242C2.15157 6.47346 -0.396492 9.43472 0.0511406 12.878C0.395473 15.495 2.42704 17.5954 4.9751 17.9742Z" fill="#70C6BD"/>
</svg>
